<?xml version="1.0" standalone="no"?>
<!DOCTYPE svg PUBLIC "-//W3C//DTD SVG 20010904//EN"
 "http://www.w3.org/TR/2001/REC-SVG-20010904/DTD/svg10.dtd">
<svg version="1.0" xmlns="http://www.w3.org/2000/svg"
 width="600.000000pt" height="600.000000pt" viewBox="0 0 600.000000 600.000000"
 preserveAspectRatio="xMidYMid meet">

<g transform="translate(0.000000,600.000000) scale(0.100000,-0.100000)"
fill="#000000" stroke="none">
<path d="M3343 3815 c-41 -17 -53 -42 -53 -104 l0 -51 -35 0 c-32 0 -35 -2
-35 -30 0 -28 3 -30 35 -30 l35 0 0 -180 0 -180 35 0 35 0 0 180 0 180 40 0
c38 0 40 2 40 30 0 28 -2 30 -40 30 -38 0 -40 2 -40 30 0 41 34 73 71 68 29
-5 39 6 39 42 0 31 -71 40 -127 15z"/>
<path d="M1240 3530 l0 -290 40 0 40 0 0 135 0 135 145 0 145 0 0 -135 0 -135
45 0 45 0 0 291 0 290 -42 -3 -43 -3 -3 -118 -3 -118 -142 3 -142 3 -3 118 -3
117 -39 0 -40 0 0 -290z"/>
<path d="M2250 3530 l0 -290 35 0 35 0 0 290 0 290 -35 0 -35 0 0 -290z"/>
<path d="M2430 3530 l0 -290 35 0 35 0 0 290 0 290 -35 0 -35 0 0 -290z"/>
<path d="M1882 3649 c-71 -35 -102 -98 -102 -207 0 -84 27 -143 83 -180 35
-23 51 -27 111 -27 99 1 157 36 180 112 6 19 2 23 -31 29 -27 5 -38 3 -42 -7
-2 -8 -17 -26 -32 -41 -22 -22 -37 -28 -71 -28 -24 0 -54 7 -66 16 -26 18 -52
65 -52 94 0 19 5 20 150 20 l150 0 0 48 c0 51 -26 117 -56 144 -56 50 -152 61
-222 27z m133 -53 c33 -14 65 -59 65 -91 0 -13 -17 -15 -111 -15 -110 0 -110
0 -104 23 12 40 36 68 68 82 40 18 41 18 82 1z"/>
<path d="M2684 3651 c-54 -24 -92 -75 -104 -139 -19 -104 12 -204 79 -249 88
-60 218 -34 278 55 38 57 42 186 8 252 -45 87 -166 124 -261 81z m153 -68 c27
-18 53 -82 53 -133 0 -52 -26 -115 -55 -134 -14 -9 -43 -16 -66 -16 -109 0
-160 171 -78 265 41 46 92 52 146 18z"/>
<path d="M3587 3643 c-26 -27 -27 -27 -27 -5 0 19 -5 22 -35 22 l-35 0 0 -211
0 -210 38 3 37 3 5 153 c5 149 6 154 30 174 19 15 33 18 61 14 35 -6 38 -4 48
26 6 17 10 32 9 33 -42 33 -97 32 -131 -2z"/>
<path d="M3844 3651 c-54 -24 -92 -75 -104 -139 -19 -104 12 -204 79 -249 88
-60 218 -34 278 55 38 57 42 186 8 252 -45 87 -166 124 -261 81z m153 -68 c27
-18 53 -82 53 -133 0 -52 -26 -115 -55 -134 -14 -9 -44 -16 -69 -16 -38 0 -48
5 -74 34 -54 62 -54 170 -1 231 41 46 92 52 146 18z"/>
<path d="M4340 3663 c-8 -3 -27 -15 -42 -25 -28 -19 -28 -19 -28 1 0 17 -6 21
-35 21 l-35 0 0 -210 0 -210 39 0 40 0 3 156 3 156 28 24 c36 31 87 32 113 3
17 -18 19 -41 23 -180 l3 -159 34 0 34 0 0 128 c0 145 10 193 45 216 33 22 81
20 105 -4 18 -18 20 -33 20 -180 l0 -160 40 0 40 0 0 160 c0 186 -11 229 -65
254 -58 28 -126 17 -173 -27 -22 -20 -24 -21 -33 -4 -21 37 -108 59 -159 40z"/>
<path d="M2226 2909 c-80 -19 -126 -74 -126 -151 0 -80 42 -123 148 -153 31
-9 81 -23 110 -31 66 -18 92 -43 92 -87 0 -53 -36 -80 -116 -85 -101 -7 -159
26 -177 100 -7 25 -10 26 -45 21 -20 -3 -38 -6 -39 -7 -6 -4 17 -80 31 -101
48 -73 164 -110 272 -87 99 20 154 80 154 167 0 95 -49 136 -215 179 -116 31
-137 46 -133 94 4 52 40 74 117 74 73 0 106 -18 127 -68 13 -31 18 -34 55 -34
34 0 39 3 35 18 -3 9 -8 29 -12 44 -10 43 -74 94 -133 107 -60 13 -90 13 -145
0z"/>
<path d="M3340 2907 c-65 -18 -113 -51 -143 -96 -82 -123 -72 -315 21 -408 99
-98 279 -108 413 -23 l50 33 -3 106 -3 106 -122 3 -123 3 0 -41 0 -40 83 0 83
0 3 -44 c1 -37 -2 -47 -24 -64 -40 -32 -91 -45 -160 -40 -121 8 -187 83 -187
216 0 144 70 224 197 226 75 1 120 -23 149 -80 21 -39 22 -40 58 -31 36 8 36
9 26 40 -17 52 -58 98 -104 119 -56 24 -156 32 -214 15z"/>
<path d="M2573 2898 c2 -7 51 -132 107 -278 56 -146 105 -271 107 -277 3 -8
23 -13 47 -13 l43 0 106 273 c58 149 109 280 113 290 6 16 2 18 -37 15 l-44
-3 -90 -244 c-84 -227 -90 -242 -101 -215 -6 16 -46 127 -89 247 l-77 217 -45
0 c-32 0 -44 -4 -40 -12z"/>
<path d="M3793 2713 c8 -228 11 -243 42 -243 20 0 23 6 29 77 3 43 9 142 13
220 l6 143 -48 0 -48 0 6 -197z"/>
<path d="M3790 2376 l0 -46 46 0 45 0 -3 43 c-3 42 -3 42 -45 45 l-43 3 0 -45z"/>
</g>
</svg>
